# xmcd
#
# Track frame offsets: 
#        150
#        20673
#        43977
#        59926
#        84266
#        113284
#        135796
#        151855
#        178114
#        201648
#        255916
#        289172
#
# Disc length: 4103 seconds
#
# Revision: 10
# Processed by: cddbd v1.5.2PL0 Copyright (c) Steve Scherf et al.
# Submitted via: ExactAudioCopyFreeDBPlugin 1.0
#
DISCID=a310050c
DTITLE=Kendrick Lamar - good kid, m.A.A.d city (Deluxe Edition) [CD
DTITLE=1)
DYEAR=2012
DGENRE=Rap
TTITLE0=Sherane a.k.a Master Splinter's Daughter
TTITLE1=Bitch, Don't Kill My Vibe
TTITLE2=Backseat Freestyle
TTITLE3=The Art of Peer Pressure
TTITLE4=Money Trees Feat. Jay Rock
TTITLE5=Poetic Justice Feat. Drake
TTITLE6=good kid
TTITLE7=m.A.A.d city Feat. MC Eiht
TTITLE8=Swimming Pools (Drank) (Extended Version)
TTITLE9=Sing About Me, I'm Dying of Thirst
TTITLE10=Real Feat. Anna Wise Of Sonnymoon
TTITLE11=Compton Feat. Dr. Dre
EXTD=YEAR: 2012
EXTT0=
EXTT1=
EXTT2=
EXTT3=
EXTT4=
EXTT5=
EXTT6=
EXTT7=
EXTT8=
EXTT9=
EXTT10=
EXTT11=
PLAYORDER=
